<?xml version="1.0" encoding="UTF-8"?>
<svg xmlns="http://www.w3.org/2000/svg" version="1.1" viewBox="0 0 58.1 49.6">
  <!-- Generator: Adobe Illustrator 28.6.0, SVG Export Plug-In . SVG Version: 1.2.0 Build 709)  -->
  <g>
    <g id="email-icon">
      <path d="M49.9,0H8.2C3.7,0,0,3.7,0,8.2v33.2c0,4.5,3.7,8.2,8.2,8.2h41.7c4.5,0,8.2-3.7,8.2-8.2V8.2c0-4.5-3.7-8.2-8.2-8.2ZM49.4,7.4l-19.7,19.3c-.3.3-.8.3-1.1,0L8.8,7.4h40.6ZM49.9,42.2H8.2c-.4,0-.8-.3-.8-.8v-24.9l16,15.6c1.6,1.5,3.6,2.3,5.7,2.3s4.1-.8,5.7-2.3l15.9-15.5v24.9c0,.4-.3.8-.8.8Z"/>
    </g>
  </g>
</svg>