<?xml version="1.0" encoding="UTF-8"?>
<svg xmlns="http://www.w3.org/2000/svg" version="1.1" viewBox="0 0 58.1 49.6">
  <!-- Generator: Adobe Illustrator 28.6.0, SVG Export Plug-In . SVG Version: 1.2.0 Build 709)  -->
  <g>
    <g id="linkedin-icon">
      <path d="M49.9,0H8.2C3.7,0,0,3.7,0,8.2v33.2C0,45.9,3.7,49.6,8.2,49.6h41.7c4.5,0,8.2-3.7,8.2-8.2V8.2C58.1,3.7,54.4,0,49.9,0ZM20,41.1c0,.3-.3.6-.6.6h-7.3c-.3,0-.6-.3-.6-.6v-23.3c0-.3.3-.6.6-.6h7.3c.3,0,.6.3.6.6v23.3ZM15.8,15.2c-2.6,0-4.8-2.1-4.8-4.8s2.1-4.8,4.8-4.8,4.8,2.2,4.8,4.8-2.2,4.8-4.8,4.8ZM47.2,41.1c0,.3-.3.6-.6.6h-7.2c-.3,0-.6-.3-.6-.6v-11.3c0-3.2-.2-5.6-3.2-5.6s-3.8,1.5-3.8,5.4v11.5c0,.3-.3.6-.6.6h-7.2c-.3,0-.6-.3-.6-.6v-23.3c0-.3.3-.6.6-.6h6.9c.3,0,.6.3.6.6v1.5c1.3-1.4,3.5-2.7,6.4-2.7,8.2,0,9.3,5.9,9.3,11.7v12.8Z"/>
    </g>
  </g>
</svg>