<?xml version="1.0" encoding="UTF-8"?>
<svg xmlns="http://www.w3.org/2000/svg" version="1.1" viewBox="0 0 58.1 49.6">
  <!-- Generator: Adobe Illustrator 28.6.0, SVG Export Plug-In . SVG Version: 1.2.0 Build 709)  -->
  <g>
    <g id="phone-motif">
      <path d="M49.9,0H8.2C3.7,0,0,3.7,0,8.2v33.3c0,4.5,3.7,8.2,8.2,8.2h41.8c4.5,0,8.2-3.7,8.2-8.2V8.2C58.1,3.7,54.4,0,49.9,0ZM45.8,32v-.2c-.9,1.8-2.8,4.8-5.5,6.4-.3.2-.5.2-.8.2-4,0-8.8-.6-16.5-6.4-7.7-5.8-9.7-10.2-10.9-14,0-.3,0-.5,0-.8.7-3,3.2-5.8,4.5-7.1s1.5-.6,2.2,0c2.4,1.8,4.4,4.5,5.2,6.3.3.5,0,1.1-.3,1.7l-1.8,2.2c-.4.4-.4.9-.2,1.4.9,1.9,2.7,4.1,4.8,5.8,2.1,1.7,4.8,2.7,6.9,3,.5,0,1-.2,1.2-.5l1.6-2.4c.4-.5.9-.8,1.5-.7,1.9.2,5.2,1.4,7.6,3.1.7.5.9,1.4.5,2.1Z"/>
    </g>
  </g>
</svg>